<svg width="10" height="10" viewBox="0 0 10 10" fill="none" xmlns="http://www.w3.org/2000/svg">
<path fill-rule="evenodd" clip-rule="evenodd" d="M5.49809 0.998047C3.01832 0.998047 0.996097 3.01708 0.996094 5.49685C0.996088 7.97663 3.01831 9.99805 5.49809 9.99805C7.97787 9.99805 9.9961 7.97663 9.99609 5.49685C9.99609 3.01708 7.97786 0.998047 5.49809 0.998047ZM5.49809 1.81601C7.5358 1.81601 9.17813 3.45914 9.17813 5.49685C9.17813 7.53456 7.53581 9.18008 5.49809 9.18008C3.46037 9.18008 1.81405 7.53456 1.81406 5.49685C1.81406 3.45914 3.46038 1.81601 5.49809 1.81601ZM5.4917 2.62838C5.43765 2.62891 5.38424 2.64014 5.33456 2.66142C5.28488 2.68271 5.23991 2.71364 5.20225 2.75241C5.16459 2.79118 5.13499 2.83704 5.11516 2.88732C5.09533 2.9376 5.08566 2.99131 5.08671 3.04535V5.49685C5.08693 5.55066 5.09777 5.60391 5.11861 5.65353C5.13944 5.70315 5.16986 5.74817 5.20813 5.78601L6.84406 7.42274C6.88185 7.46187 6.92708 7.49307 6.97708 7.51451C7.02709 7.53595 7.08087 7.5472 7.13527 7.5476C7.18968 7.548 7.24362 7.53754 7.29393 7.51683C7.34424 7.49613 7.38992 7.46559 7.42829 7.42701C7.46665 7.38843 7.49693 7.34259 7.51736 7.29216C7.53779 7.24174 7.54795 7.18774 7.54726 7.13334C7.54656 7.07893 7.53501 7.02522 7.51329 6.97533C7.49158 6.92545 7.46013 6.88039 7.42079 6.84281L5.90548 5.3275V3.04535C5.90654 2.99057 5.89659 2.93613 5.87622 2.88527C5.85584 2.83441 5.82546 2.78816 5.78686 2.74927C5.74827 2.71038 5.70225 2.67964 5.65155 2.65887C5.60085 2.6381 5.54649 2.62774 5.4917 2.62838Z" fill="#B48D53"/>
</svg>
