<svg width="10" height="10" viewBox="0 0 10 10" fill="none" xmlns="http://www.w3.org/2000/svg">
<path d="M9.25389 8.06099L6.19296 5.00005L9.25389 1.93911C9.58436 1.60864 9.58436 1.07661 9.25389 0.746143C8.92343 0.415674 8.39139 0.415674 8.06093 0.746143L4.99999 3.80708L1.93905 0.746143C1.60858 0.415674 1.07655 0.415674 0.746082 0.746143C0.415613 1.07661 0.415613 1.60864 0.746082 1.93911L3.80702 5.00005L0.746082 8.06099C0.415613 8.39146 0.415613 8.92349 0.746082 9.25396C1.07655 9.58442 1.60858 9.58442 1.93905 9.25396L4.99999 6.19302L8.06093 9.25396C8.39139 9.58442 8.92343 9.58442 9.25389 9.25396C9.58202 8.92349 9.58202 8.38911 9.25389 8.06099Z" fill="#8C2A44"/>
</svg>
