<svg width="52" height="67" viewBox="0 0 52 67" fill="none" xmlns="http://www.w3.org/2000/svg">
<mask id="path-1-inside-1_11_711" fill="white">
<path fill-rule="evenodd" clip-rule="evenodd" d="M15 0C6.71573 0 0 6.71573 0 15V37C0 45.2843 6.71573 52 15 52H37C45.2843 52 52 45.2843 52 37V15C52 6.71573 45.2843 0 37 0H15ZM13 38.2779V33.8874C13 33.6852 13.0722 33.5119 13.2166 33.3674L28.9733 17.6107L34.3893 23.0267L18.6181 38.7834C18.4881 38.9278 18.3004 39 18.1126 39H13.7221C13.3177 39 13 38.6823 13 38.2779ZM38.5776 16.802C39.1408 17.3652 39.1408 18.2751 38.5776 18.8384L35.9346 21.4813L30.5187 16.0654L33.1616 13.4224C33.7249 12.8592 34.6348 12.8592 35.198 13.4224L38.5776 16.802Z"/>
</mask>
<path fill-rule="evenodd" clip-rule="evenodd" d="M15 0C6.71573 0 0 6.71573 0 15V37C0 45.2843 6.71573 52 15 52H37C45.2843 52 52 45.2843 52 37V15C52 6.71573 45.2843 0 37 0H15ZM13 38.2779V33.8874C13 33.6852 13.0722 33.5119 13.2166 33.3674L28.9733 17.6107L34.3893 23.0267L18.6181 38.7834C18.4881 38.9278 18.3004 39 18.1126 39H13.7221C13.3177 39 13 38.6823 13 38.2779ZM38.5776 16.802C39.1408 17.3652 39.1408 18.2751 38.5776 18.8384L35.9346 21.4813L30.5187 16.0654L33.1616 13.4224C33.7249 12.8592 34.6348 12.8592 35.198 13.4224L38.5776 16.802Z" fill="#555555" fill-opacity="0.3"/>
<path d="M13.2166 33.3674L11.8024 31.9532L11.8024 31.9532L13.2166 33.3674ZM28.9733 17.6107L30.3876 16.1965L28.9733 14.7823L27.5591 16.1965L28.9733 17.6107ZM34.3893 23.0267L35.8028 24.4415L37.2183 23.0273L35.8035 21.6124L34.3893 23.0267ZM18.6181 38.7834L17.2045 37.3685L17.167 37.406L17.1315 37.4454L18.6181 38.7834ZM38.5776 18.8384L37.1633 17.4241L37.1633 17.4241L38.5776 18.8384ZM38.5776 16.802L37.1633 18.2162L37.1633 18.2162L38.5776 16.802ZM35.9346 21.4813L34.5204 22.8955L35.9346 24.3097L37.3488 22.8955L35.9346 21.4813ZM30.5187 16.0654L29.1045 14.6512L27.6903 16.0654L29.1045 17.4796L30.5187 16.0654ZM35.198 13.4224L36.6122 12.0082L36.6122 12.0082L35.198 13.4224ZM2 15C2 7.8203 7.8203 2 15 2V-2C5.61116 -2 -2 5.61116 -2 15H2ZM2 37V15H-2V37H2ZM15 50C7.8203 50 2 44.1797 2 37H-2C-2 46.3888 5.61116 54 15 54V50ZM37 50H15V54H37V50ZM50 37C50 44.1797 44.1797 50 37 50V54C46.3888 54 54 46.3888 54 37H50ZM50 15V37H54V15H50ZM37 2C44.1797 2 50 7.8203 50 15H54C54 5.61116 46.3888 -2 37 -2V2ZM15 2H37V-2H15V2ZM11 33.8874V38.2779H15V33.8874H11ZM11.8024 31.9532C11.2872 32.4684 11 33.1487 11 33.8874H15C15 34.0298 14.9734 34.1996 14.9003 34.375C14.8274 34.5499 14.727 34.6855 14.6309 34.7817L11.8024 31.9532ZM27.5591 16.1965L11.8024 31.9532L14.6309 34.7817L30.3876 19.025L27.5591 16.1965ZM35.8035 21.6124L30.3876 16.1965L27.5591 19.025L32.975 24.4409L35.8035 21.6124ZM20.0317 40.1982L35.8028 24.4415L32.9757 21.6118L17.2045 37.3685L20.0317 40.1982ZM18.1126 41C18.7948 41 19.5495 40.7382 20.1047 40.1213L17.1315 37.4454C17.4268 37.1174 17.806 37 18.1126 37V41ZM13.7221 41H18.1126V37H13.7221V41ZM11 38.2779C11 39.7868 12.2132 41 13.7221 41V37C14.4223 37 15 37.5777 15 38.2779H11ZM39.9918 20.2526C41.3361 18.9083 41.3361 16.7321 39.9918 15.3878L37.1633 18.2162C36.9455 17.9984 36.9455 17.6419 37.1633 17.4241L39.9918 20.2526ZM37.3488 22.8955L39.9918 20.2526L37.1633 17.4241L34.5204 20.0671L37.3488 22.8955ZM29.1045 17.4796L34.5204 22.8955L37.3488 20.0671L31.9329 14.6512L29.1045 17.4796ZM31.7474 12.0082L29.1045 14.6512L31.9329 17.4796L34.5759 14.8367L31.7474 12.0082ZM36.6122 12.0082C35.2679 10.6639 33.0917 10.6639 31.7474 12.0082L34.5759 14.8367C34.3581 15.0544 34.0016 15.0544 33.7838 14.8367L36.6122 12.0082ZM39.9918 15.3878L36.6122 12.0082L33.7838 14.8367L37.1633 18.2162L39.9918 15.3878Z" fill="#200E32" mask="url(#path-1-inside-1_11_711)"/>
<path d="M13 56C23 56 43.1 56.4 43.5 58C44 60 16 59 16 61C16 63 30 62 29 64.5C28.2 66.5 27.6667 65.6667 27 66" stroke="black" stroke-width="2"/>
</svg>
