<svg width="175" height="33" viewBox="0 0 175 33" fill="none" xmlns="http://www.w3.org/2000/svg"><path d="M0 4.24255H5.1844V27.623H0V4.24255Z" fill="#333333"/><path d="M10.1829 10.4841C11.0248 10.2367 12.1104 10.0118 13.4398 9.80933C14.7691 9.58441 16.1649 9.47194 17.6272 9.47194C19.1116 9.47194 20.3412 9.67437 21.3161 10.0792C22.3131 10.4616 23.0996 11.0126 23.6756 11.7324C24.2517 12.4521 24.6615 13.3068 24.9053 14.2965C25.149 15.2861 25.2708 16.3882 25.2708 17.6028V27.623H20.3191V18.2101C20.3191 16.5907 20.1086 15.4436 19.6876 14.7688C19.2667 14.0941 18.4801 13.7567 17.3281 13.7567C16.9736 13.7567 16.5969 13.7792 16.1981 13.8242C15.7993 13.8466 15.4448 13.8804 15.1347 13.9254V27.623H10.1829V10.4841Z" fill="#333333"/><path d="M29.7529 10.4841C30.5948 10.2367 31.6804 10.0118 33.0098 9.80933C34.3391 9.58441 35.7349 9.47194 37.1972 9.47194C38.6816 9.47194 39.9112 9.67437 40.8861 10.0792C41.8831 10.4616 42.6696 11.0126 43.2456 11.7324C43.8217 12.4521 44.2315 13.3068 44.4753 14.2965C44.719 15.2861 44.8408 16.3882 44.8408 17.6028V27.623H39.8891V18.2101C39.8891 16.5907 39.6786 15.4436 39.2576 14.7688C38.8367 14.0941 38.0502 13.7567 36.8981 13.7567C36.5436 13.7567 36.1669 13.7792 35.7681 13.8242C35.3693 13.8466 35.0148 13.8804 34.7047 13.9254V27.623H29.7529V10.4841Z" fill="#333333"/><path d="M65.6737 18.7162C65.6737 20.1107 65.4743 21.3927 65.0755 22.5623C64.6767 23.7094 64.1007 24.699 63.3474 25.5312C62.5941 26.341 61.6857 26.9707 60.6222 27.4206C59.5809 27.8704 58.4067 28.0953 57.0995 28.0953C55.8145 28.0953 54.6402 27.8704 53.5768 27.4206C52.5355 26.9707 51.6382 26.341 50.8849 25.5312C50.1316 24.699 49.5445 23.7094 49.1235 22.5623C48.7025 21.3927 48.4921 20.1107 48.4921 18.7162C48.4921 17.3217 48.7025 16.0509 49.1235 14.9038C49.5666 13.7567 50.1648 12.7783 50.9181 11.9686C51.6936 11.1588 52.6019 10.5291 53.6432 10.0792C54.7067 9.62939 55.8588 9.40447 57.0995 9.40447C58.3624 9.40447 59.5145 9.62939 60.5558 10.0792C61.6192 10.5291 62.5276 11.1588 63.2809 11.9686C64.0342 12.7783 64.6213 13.7567 65.0423 14.9038C65.4632 16.0509 65.6737 17.3217 65.6737 18.7162ZM60.6222 18.7162C60.6222 17.1642 60.3121 15.9496 59.6917 15.0725C59.0935 14.1728 58.2294 13.7229 57.0995 13.7229C55.9696 13.7229 55.0944 14.1728 54.4741 15.0725C53.8537 15.9496 53.5435 17.1642 53.5435 18.7162C53.5435 20.2681 53.8537 21.5052 54.4741 22.4273C55.0944 23.327 55.9696 23.7769 57.0995 23.7769C58.2294 23.7769 59.0935 23.327 59.6917 22.4273C60.3121 21.5052 60.6222 20.2681 60.6222 18.7162Z" fill="#333333"/><path d="M73.8075 27.623C72.6776 25.3738 71.5255 22.7422 70.3513 19.7283C69.1992 16.7144 68.1025 13.4305 67.0612 9.8768H72.312C72.5336 10.754 72.7884 11.7099 73.0764 12.7445C73.3866 13.7567 73.6968 14.7913 74.0069 15.8484C74.3393 16.8831 74.6605 17.8952 74.9707 18.8849C75.303 19.8745 75.6243 20.7742 75.9345 21.5839C76.2225 20.7742 76.5327 19.8745 76.865 18.8849C77.1973 17.8952 77.5186 16.8831 77.8288 15.8484C78.1611 14.7913 78.4713 13.7567 78.7593 12.7445C79.0695 11.7099 79.3354 10.754 79.5569 9.8768H84.6748C83.6335 13.4305 82.5258 16.7144 81.3515 19.7283C80.1994 22.7422 79.0584 25.3738 77.9285 27.623H73.8075Z" fill="#333333"/><path d="M93.6824 24.1142C94.1698 24.1142 94.6351 24.103 95.0782 24.0805C95.5213 24.058 95.8758 24.0243 96.1416 23.9793V20.1669C95.9422 20.1219 95.6431 20.0769 95.2443 20.0319C94.8455 19.987 94.48 19.9645 94.1476 19.9645C93.6824 19.9645 93.2393 19.9982 92.8183 20.0657C92.4195 20.1107 92.065 20.2119 91.7548 20.3693C91.4447 20.5268 91.201 20.7404 91.0237 21.0104C90.8465 21.2803 90.7578 21.6176 90.7578 22.0225C90.7578 22.8097 91.0126 23.3608 91.5222 23.6757C92.0539 23.9681 92.774 24.1142 93.6824 24.1142ZM93.2836 9.40447C94.7458 9.40447 95.9644 9.57316 96.9392 9.91054C97.9141 10.2479 98.6895 10.7315 99.2656 11.3613C99.8638 11.9911 100.285 12.7558 100.528 13.6555C100.772 14.5551 100.894 15.556 100.894 16.6581V27.1169C100.185 27.2744 99.1991 27.4543 97.9362 27.6567C96.6734 27.8817 95.1446 27.9941 93.35 27.9941C92.2201 27.9941 91.1899 27.8929 90.2593 27.6905C89.351 27.488 88.5644 27.1619 87.8998 26.7121C87.2351 26.2397 86.7255 25.6325 86.371 24.8902C86.0165 24.148 85.8393 23.2371 85.8393 22.1574C85.8393 21.1228 86.0387 20.2456 86.4375 19.5259C86.8585 18.8061 87.4123 18.2326 88.0992 17.8052C88.786 17.3779 89.5725 17.0742 90.4587 16.8943C91.345 16.6919 92.2644 16.5907 93.2171 16.5907C93.8596 16.5907 94.4246 16.6244 94.912 16.6919C95.4216 16.7369 95.8315 16.8043 96.1416 16.8943V16.422C96.1416 15.5673 95.8868 14.8813 95.3773 14.364C94.8677 13.8466 93.9815 13.588 92.7186 13.588C91.8767 13.588 91.0459 13.6555 90.2261 13.7904C89.4063 13.9029 88.6974 14.0716 88.0992 14.2965L87.4677 10.2479C87.7558 10.158 88.1102 10.068 88.5312 9.97802C88.9743 9.86556 89.4507 9.77559 89.9602 9.70811C90.4698 9.61814 91.0015 9.55067 91.5554 9.50568C92.1315 9.43821 92.7075 9.40447 93.2836 9.40447Z" fill="#333333"/><path d="M105.205 5.45712L110.157 4.64741V9.8768H116.106V14.0603H110.157V20.3019C110.157 21.359 110.335 22.2024 110.689 22.8322C111.066 23.462 111.808 23.7769 112.916 23.7769C113.447 23.7769 113.99 23.7319 114.544 23.6419C115.12 23.5295 115.641 23.3833 116.106 23.2033L116.804 27.1169C116.206 27.3643 115.541 27.578 114.81 27.758C114.079 27.9379 113.181 28.0279 112.118 28.0279C110.767 28.0279 109.648 27.8479 108.761 27.4881C107.875 27.1057 107.166 26.5884 106.635 25.9361C106.103 25.2613 105.726 24.4516 105.505 23.507C105.305 22.5623 105.205 21.5164 105.205 20.3693V5.45712Z" fill="#333333"/><path d="M125.09 27.623H120.138V9.8768H125.09V27.623ZM125.555 4.74862C125.555 5.67079 125.256 6.40179 124.658 6.94159C124.082 7.45891 123.395 7.71757 122.598 7.71757C121.8 7.71757 121.102 7.45891 120.504 6.94159C119.928 6.40179 119.64 5.67079 119.64 4.74862C119.64 3.82645 119.928 3.1067 120.504 2.58939C121.102 2.04958 121.8 1.77968 122.598 1.77968C123.395 1.77968 124.082 2.04958 124.658 2.58939C125.256 3.1067 125.555 3.82645 125.555 4.74862Z" fill="#333333"/><path d="M146.096 18.7162C146.096 20.1107 145.896 21.3927 145.498 22.5623C145.099 23.7094 144.523 24.699 143.769 25.5312C143.016 26.341 142.108 26.9707 141.044 27.4206C140.003 27.8704 138.829 28.0953 137.522 28.0953C136.236 28.0953 135.062 27.8704 133.999 27.4206C132.957 26.9707 132.06 26.341 131.307 25.5312C130.554 24.699 129.966 23.7094 129.546 22.5623C129.125 21.3927 128.914 20.1107 128.914 18.7162C128.914 17.3217 129.125 16.0509 129.546 14.9038C129.989 13.7567 130.587 12.7783 131.34 11.9686C132.116 11.1588 133.024 10.5291 134.065 10.0792C135.129 9.62939 136.281 9.40447 137.522 9.40447C138.784 9.40447 139.936 9.62939 140.978 10.0792C142.041 10.5291 142.95 11.1588 143.703 11.9686C144.456 12.7783 145.043 13.7567 145.464 14.9038C145.885 16.0509 146.096 17.3217 146.096 18.7162ZM141.044 18.7162C141.044 17.1642 140.734 15.9496 140.114 15.0725C139.516 14.1728 138.651 13.7229 137.522 13.7229C136.392 13.7229 135.516 14.1728 134.896 15.0725C134.276 15.9496 133.966 17.1642 133.966 18.7162C133.966 20.2681 134.276 21.5052 134.896 22.4273C135.516 23.327 136.392 23.7769 137.522 23.7769C138.651 23.7769 139.516 23.327 140.114 22.4273C140.734 21.5052 141.044 20.2681 141.044 18.7162Z" fill="#333333"/><path d="M149.932 10.4841C150.773 10.2367 151.859 10.0118 153.188 9.80933C154.518 9.58441 155.914 9.47194 157.376 9.47194C158.86 9.47194 160.09 9.67437 161.065 10.0792C162.062 10.4616 162.848 11.0126 163.424 11.7324C164 12.4521 164.41 13.3068 164.654 14.2965C164.898 15.2861 165.02 16.3882 165.02 17.6028V27.623H160.068V18.2101C160.068 16.5907 159.857 15.4436 159.436 14.7688C159.015 14.0941 158.229 13.7567 157.077 13.7567C156.722 13.7567 156.346 13.7792 155.947 13.8242C155.548 13.8466 155.193 13.8804 154.883 13.9254V27.623H149.932V10.4841Z" fill="#333333"/><path d="M175 33V0H143.532L152.65 9.25374C152.719 9.24303 152.788 9.23239 152.858 9.22179C154.296 8.97903 155.807 8.85765 157.389 8.85765C158.995 8.85765 160.326 9.07614 161.381 9.5131C162.46 9.92579 163.311 10.5206 163.934 11.2974C164.558 12.0742 165.001 12.9967 165.265 14.0648C165.529 15.133 165.661 16.3225 165.661 17.6334V23.0595L175 33Z" fill="#FFCC66"/></svg>