<svg viewBox="0 0 1194 228" fill="none" xmlns="http://www.w3.org/2000/svg">
<path d="M0 228L198.689 154L398.311 188L597 144L795.689 156L995.311 212L1194 195V0H0V228Z" fill="#EFEFEF" fill-opacity="0.5"/>
<path d="M0 109L198.689 147L398.311 186L597 111L795.689 160L995.311 164L1194 158V0H0V109Z" fill="#F4F4F4" fill-opacity="0.75"/>
<path d="M0 99L198.689 110L398.311 87L597 129L795.689 107L995.311 137L1194 84V0H0V99Z" fill="#FAFAFA" fill-opacity="0.75"/>
<path d="M0 85L198.689 44L398.311 54L597 67L795.689 68L995.311 75L1194 78V0H0V85Z" fill="white"/>
</svg>
